<?xml version="1.0" encoding="UTF-8" standalone="no"?>
<svg width="16px" height="16px" viewBox="0 0 16 16" version="1.1" xmlns="http://www.w3.org/2000/svg" xmlns:xlink="http://www.w3.org/1999/xlink">
    <!-- Generator: Sketch 40.1 (33804) - http://www.bohemiancoding.com/sketch -->
    <title>card-icon</title>
    <desc>Created with Sketch.</desc>
    <defs></defs>
    <g id="Page-1" stroke="none" stroke-width="1" fill="none" fill-rule="evenodd">
        <g id="001-prueba-maquetacion" transform="translate(-271.000000, -223.000000)" fill="#00C9FF">
            <g id="herramientas-filtrado" transform="translate(194.000000, 206.000000)">
                <g id="filtrado-alldarwins">
                    <g id="Group-8">
                        <path d="M87.1457557,17.4968944 C87.1457557,17.2219462 86.9238095,17 86.6488613,17 L83.3031056,17 C83.0281573,17 82.8062112,17.2219462 82.8062112,17.4968944 L82.8062112,20.8443064 C82.8062112,21.1192547 83.0281573,21.3412008 83.3031056,21.3412008 L86.6488613,21.3412008 C86.9238095,21.3412008 87.1457557,21.1192547 87.1457557,20.8443064 L87.1457557,17.4968944 Z M92.9378882,17.4968944 C92.9378882,17.2219462 92.715942,17 92.4409938,17 L89.0952381,17 C88.8202733,17 88.5983437,17.2219462 88.5983437,17.4968944 L88.5983437,20.8443064 C88.5983437,21.1192547 88.8202733,21.3412008 89.0952381,21.3412008 L92.4426501,21.3412008 C92.7176149,21.3412008 92.9395445,21.1192547 92.9395445,20.8443064 L92.9395445,17.4968944 L92.9378882,17.4968944 Z M81.3536232,23.3204969 C81.3536232,23.0455487 81.131677,22.8236025 80.8567288,22.8236025 L77.5109731,22.8236025 C77.2360248,22.8236025 77.0140787,23.0455487 77.0140787,23.3204969 L77.0140787,26.6662526 C77.0140787,26.9412008 77.2360248,27.163147 77.5109731,27.163147 L80.8583851,27.163147 C81.1333333,27.163147 81.3552795,26.9412008 81.3552795,26.6662526 L81.3552795,23.3204969 L81.3536232,23.3204969 Z M87.1457557,23.3204969 C87.1457557,23.0455487 86.9238095,22.8236025 86.6488613,22.8236025 L83.3031056,22.8236025 C83.0281573,22.8236025 82.8062112,23.0455487 82.8062112,23.3204969 L82.8062112,26.6662526 C82.8062112,26.9412008 83.0281573,27.163147 83.3031056,27.163147 L86.6488613,27.163147 C86.9238095,27.163147 87.1457557,26.9412008 87.1457557,26.6662526 L87.1457557,23.3204969 Z M92.9378882,23.3204969 C92.9378882,23.0455487 92.715942,22.8236025 92.4409938,22.8236025 L89.0952381,22.8236025 C88.8202733,22.8236025 88.5983437,23.0455487 88.5983437,23.3204969 L88.5983437,26.6662526 C88.5983437,26.9412008 88.8202733,27.163147 89.0952381,27.163147 L92.4426501,27.163147 C92.7176149,27.163147 92.9395445,26.9412008 92.9395445,26.6662526 L92.9395445,23.3204969 L92.9378882,23.3204969 Z M80.8567288,28.6455487 L77.5109731,28.6455487 C77.2360248,28.6455487 77.0140787,28.8674948 77.0140787,29.1424431 L77.0140787,32.4898551 C77.0140787,32.7648364 77.2360248,32.9867495 77.5109731,32.9867495 L80.8583851,32.9867495 C81.1333333,32.9867495 81.3552795,32.7648364 81.3552795,32.4898551 L81.3552795,29.1424431 C81.3536232,28.8691511 81.131677,28.6455487 80.8567288,28.6455487 Z M86.6488613,28.6455487 L83.3031056,28.6455487 C83.0281573,28.6455487 82.8062112,28.8674948 82.8062112,29.1424431 L82.8062112,32.4898551 C82.8062112,32.7648364 83.0281573,32.9867495 83.3031056,32.9867495 L86.6488613,32.9867495 C86.9238095,32.9867495 87.1457557,32.7648364 87.1457557,32.4898551 L87.1457557,29.1424431 C87.1457557,28.8691511 86.923793,28.6455487 86.6488613,28.6455487 Z M92.4409938,28.6455487 L89.0952381,28.6455487 C88.8202733,28.6455487 88.5983437,28.8674948 88.5983437,29.1424431 L88.5983437,32.4898551 C88.5983437,32.7648364 88.8202733,32.9867495 89.0952381,32.9867495 L92.4426501,32.9867495 C92.7176149,32.9867495 92.9395445,32.7648364 92.9395445,32.4898551 L92.9395445,29.1424431 C92.9378882,28.8691511 92.715942,28.6455487 92.4409938,28.6455487 Z M81.3536232,17.4968944 C81.3536232,17.2219462 81.131677,17 80.8567288,17 L77.5109731,17 C77.2360248,17 77.0140787,17.2219462 77.0140787,17.4968944 L77.0140787,20.8443064 C77.0140787,21.1192547 77.2360248,21.3412008 77.5109731,21.3412008 L80.8583851,21.3412008 C81.1333333,21.3412008 81.3552795,21.1192547 81.3552795,20.8443064 L81.3552795,17.4968944 L81.3536232,17.4968944 Z" id="card-icon"></path>
                    </g>
                </g>
            </g>
        </g>
    </g>
</svg>