<?xml version="1.0" encoding="UTF-8" standalone="no"?>
<svg width="14px" height="15px" viewBox="0 0 14 15" version="1.1" xmlns="http://www.w3.org/2000/svg" xmlns:xlink="http://www.w3.org/1999/xlink">
    <!-- Generator: Sketch 40.1 (33804) - http://www.bohemiancoding.com/sketch -->
    <title>darwinia-icon</title>
    <desc>Created with Sketch.</desc>
    <defs></defs>
    <g id="Page-1" stroke="none" stroke-width="1" fill="none" fill-rule="evenodd">
        <g id="001-prueba-maquetacion" transform="translate(-16.000000, -153.000000)" fill="#ADAFB2">
            <g id="menuizq" transform="translate(-1.000000, 50.000000)">
                <g id="principal" transform="translate(1.000000, 0.000000)">
                    <g id="Principal" transform="translate(0.000000, 95.000000)">
                        <g id="Darwinia">
                            <path d="M26.2874009,15.1344714 C26.848127,15.0867968 27.3403359,14.8522117 27.7526933,14.4344582 C29.169954,12.9986757 29.1268927,9.79879335 29.1243842,9.66329947 C29.119739,9.41166797 28.9133513,9.2101133 28.6602325,9.20992852 L26.3251202,9.20840404 L26.3251202,8.23098173 C26.3251202,8.10338742 26.2211135,8 26.0928586,8 L19.032104,8 C18.9038492,8 18.7998424,8.10338742 18.7998424,8.23098173 L18.7998424,9.20831165 L16.4647765,9.20988232 C16.2117042,9.21006711 16.0053165,9.41162177 16.0006248,9.66325327 C15.99807,9.79879335 15.9550551,12.9986295 17.3723158,14.434412 C17.7846731,14.8521655 18.2769285,15.0867506 18.8376081,15.1344252 C19.0520785,16.6276297 20.1768753,17.8320609 21.6334811,18.1733133 L21.6334811,21.080588 L20.4567042,21.080588 C20.3807546,21.080588 20.3096361,21.1174989 20.2662032,21.1794482 L19.2442518,22.6368967 C19.1947337,22.7074847 19.1888342,22.7996002 19.2288761,22.8759166 C19.2688716,22.9521868 19.3482586,23 19.4347993,23 C19.4347993,23 25.6909065,22.9999538 25.6912781,23 C25.819533,23 25.9235398,22.8966126 25.9235398,22.7690183 C25.9235398,22.7131207 25.8999885,22.6676173 25.8703519,22.6219291 L24.8588988,21.179402 C24.8154659,21.1174527 24.7443474,21.0805418 24.6683978,21.0805418 L23.4916209,21.0805418 L23.4916209,18.1733595 C24.9481337,17.8320609 26.0729305,16.6276759 26.2874009,15.1344714 L26.2874009,15.1344714 Z M28.1881839,10.1334859 C28.1433574,11.1559496 27.9005046,12.9658301 27.0897256,13.7872011 C26.8657325,14.0140714 26.6137286,14.1497963 26.3251667,14.1988106 L26.3251667,10.1322386 L28.1881839,10.1334859 L28.1881839,10.1334859 Z M16.9372432,10.1334859 L18.7998424,10.1322848 L18.7998424,14.1988106 C18.5115128,14.1497963 18.2597876,14.014441 18.0359802,13.7879403 C17.2267806,12.9690177 16.9829059,11.1570121 16.9372432,10.1334859 L16.9372432,10.1334859 Z" id="darwinia-icon"></path>
                        </g>
                    </g>
                </g>
            </g>
        </g>
    </g>
</svg>