<?xml version="1.0" encoding="UTF-8" standalone="no"?>
<svg width="15px" height="15px" viewBox="0 0 15 15" version="1.1" xmlns="http://www.w3.org/2000/svg" xmlns:xlink="http://www.w3.org/1999/xlink">
    <!-- Generator: Sketch 40.1 (33804) - http://www.bohemiancoding.com/sketch -->
    <title>explorar-icon</title>
    <desc>Created with Sketch.</desc>
    <defs></defs>
    <g id="Page-1" stroke="none" stroke-width="1" fill="none" fill-rule="evenodd">
        <g id="001-prueba-maquetacion" transform="translate(-15.000000, -93.000000)" fill="#ADAFB2">
            <g id="menuizq" transform="translate(-1.000000, 50.000000)">
                <g id="principal" transform="translate(1.000000, 0.000000)">
                    <path d="M22.5,49.675 C22.05,49.675 21.675,50.05 21.675,50.5 C21.675,50.95 22.05,51.325 22.5,51.325 C22.95,51.325 23.325,50.95 23.325,50.5 C23.325,50.05 22.95,49.675 22.5,49.675 L22.5,49.675 Z M22.5,43 C18.375,43 15,46.375 15,50.5 C15,54.625 18.375,58 22.5,58 C26.625,58 30,54.625 30,50.5 C30,46.375 26.625,43 22.5,43 L22.5,43 Z M24.15,52.15 L18,55 L20.85,48.85 L27,46 L24.15,52.15 L24.15,52.15 Z" id="explorar-icon"></path>
                </g>
            </g>
        </g>
    </g>
</svg>