<?xml version="1.0" encoding="UTF-8" standalone="no"?>
<svg width="16px" height="16px" viewBox="0 0 16 16" version="1.1" xmlns="http://www.w3.org/2000/svg" xmlns:xlink="http://www.w3.org/1999/xlink">
    <!-- Generator: Sketch 40.1 (33804) - http://www.bohemiancoding.com/sketch -->
    <title>folder-icon</title>
    <desc>Created with Sketch.</desc>
    <defs></defs>
    <g id="Page-1" stroke="none" stroke-width="1" fill="none" fill-rule="evenodd">
        <g id="001-prueba-maquetacion" transform="translate(-201.000000, -480.000000)" fill="#00C9FF">
            <g id="resultados" transform="translate(194.000000, 314.000000)">
                <g id="modelocarddarwin1">
                    <g id="folder-icon" transform="translate(7.000000, 166.000000)">
                        <path d="M8,0 C3.58881817,0 0,3.58881817 0,8 C0,12.4108596 3.58881817,16 8,16 C12.4108596,16 16,12.4108596 16,8 C16,3.58881817 12.4115041,0 8,0 Z M6.59416952,8.31564221 C6.94548422,8.15376839 7.28152982,8.07279566 7.60212711,8.07279566 L11.8593379,8.07279566 L11.8593379,7.25459674 C11.8593379,6.94096845 11.7467373,6.67152502 11.5215181,6.44651718 C11.2963348,6.22152726 11.0269571,6.1090502 10.7130803,6.1090502 L7.9295704,6.1090502 L7.9295704,5.94542117 C7.9295704,5.63179288 7.81702353,5.36247481 7.59189395,5.13753862 C7.36674644,4.91254869 7.0972612,4.8 6.78343823,4.8 L5.14613217,4.8 C4.8323092,4.8 4.56282396,4.91253078 4.33767645,5.13753862 C4.11252895,5.36249272 4,5.63181079 4,5.94543908 L4,10.8543818 C4,10.8680653 4.00087815,10.8893966 4.00258069,10.9184293 C4.00426531,10.9473545 4.00516139,10.9687036 4.00516139,10.9822976 L4.03071741,10.9517783 L5.75505016,8.92668992 C5.9631185,8.68121054 6.2428369,8.47748021 6.59416952,8.31564221 Z M13.4786329,8.79374132 C13.3882908,8.74935946 13.2851347,8.72711479 13.1690932,8.72711479 L7.60212711,8.72711479 C7.37699752,8.72711479 7.13224392,8.78766971 6.86792007,8.90872583 C6.6035783,9.02990731 6.39803689,9.17713046 6.25140337,9.3511296 L4.53219616,11.3760568 C4.4264236,11.4953756 4.37353733,11.6079064 4.37353733,11.7136492 C4.37353733,11.8158815 4.41875321,11.8892065 4.50913122,11.9334451 C4.59950922,11.977827 4.70268316,12 4.81868888,12 L10.3858162,12 C10.61091,12 10.8555381,11.9394451 11.1199337,11.8184606 C11.3842754,11.6974582 11.5897272,11.5500022 11.7364145,11.3760568 L13.4556397,9.3511296 C13.5613585,9.23179288 13.614173,9.11938747 13.614173,9.01353725 C13.6142447,8.91132283 13.5691005,8.83806946 13.4786329,8.79374132 Z" id="Combined-Shape"></path>
                    </g>
                </g>
            </g>
        </g>
    </g>
</svg>