<?xml version="1.0" encoding="UTF-8" standalone="no"?>
<svg width="11px" height="16px" viewBox="0 0 11 16" version="1.1" xmlns="http://www.w3.org/2000/svg" xmlns:xlink="http://www.w3.org/1999/xlink">
    <!-- Generator: Sketch 40.1 (33804) - http://www.bohemiancoding.com/sketch -->
    <title>hall-offame-icon</title>
    <desc>Created with Sketch.</desc>
    <defs></defs>
    <g id="Page-1" stroke="none" stroke-width="1" fill="none" fill-rule="evenodd">
        <g id="002-prueba-maquetacion-desplegables" transform="translate(-16.000000, -620.000000)" fill="#FFFFFF">
            <g id="modulo-trader" transform="translate(-1.000000, 548.000000)">
                <g id="Principal" transform="translate(0.000000, 35.000000)">
                    <g id="Darwinia" transform="translate(0.000000, 30.000000)">
                        <g id="hall-offame-icon" transform="translate(17.000000, 7.000000)">
                            <g id="Group">
                                <path d="M5.47645638,4.16998658 C6.06577181,4.16998658 6.65771812,4.25063087 7.19463087,4.4061745 L7.19463087,0 L3.65100671,0 L3.65100671,4.43726174 C4.24161074,4.26120805 4.84891275,4.16998658 5.47645638,4.16998658 Z M9.02013423,5.25948993 L9.02013423,0.536912752 C9.02013423,0.240375839 8.79758389,0 8.50110067,0 L8,0 L8,4.69412081 C8.37583893,4.84966443 8.69798658,5.0387651 9.02013423,5.25948993 Z M2.84563758,0 L2.43398658,0 C2.13744966,0 1.87919463,0.240375839 1.87919463,0.536912752 L1.87919463,5.29642953 C2.20134228,5.08236242 2.52348993,4.89734228 2.84563758,4.74249664 L2.84563758,0 Z M5.49433557,4.9753557 C2.45991946,4.9753557 0,7.43527517 0,10.4697987 C0,13.5043221 2.45991946,15.9642416 5.49433557,15.9642416 C8.52885906,15.9642416 10.9887785,13.5043221 10.9887785,10.4697987 C10.9887785,7.43527517 8.52885906,4.9753557 5.49433557,4.9753557 Z" id="Combined-Shape"></path>
                            </g>
                        </g>
                    </g>
                </g>
            </g>
        </g>
    </g>
</svg>