<?xml version="1.0" encoding="UTF-8" standalone="no"?>
<svg width="26px" height="15px" viewBox="0 0 26 15" version="1.1" xmlns="http://www.w3.org/2000/svg" xmlns:xlink="http://www.w3.org/1999/xlink">
    <!-- Generator: Sketch 40.1 (33804) - http://www.bohemiancoding.com/sketch -->
    <title>list-icon</title>
    <desc>Created with Sketch.</desc>
    <defs></defs>
    <g id="Page-1" stroke="none" stroke-width="1" fill="none" fill-rule="evenodd">
        <g id="001-prueba-maquetacion" transform="translate(-210.000000, -224.000000)" fill="#6C6C6C">
            <g id="herramientas-filtrado" transform="translate(194.000000, 206.000000)">
                <g id="filtrado-alldarwins">
                    <g id="Group-8">
                        <g id="list-icon" transform="translate(16.000000, 18.000000)">
                            <path d="M0,3 L3,3 L3,0 L0,0 L0,3 L0,3 Z M5.6,0 L5.6,3 L25.6,3 L25.6,0 L5.6,0 L5.6,0 Z" id="Shape"></path>
                            <path d="M0,15 L3,15 L3,12 L0,12 L0,15 L0,15 Z M5.6,12 L5.6,15 L25.6,15 L25.6,12 L5.6,12 L5.6,12 Z" id="Shape-Copy-5"></path>
                            <path d="M0,9 L3,9 L3,6 L0,6 L0,9 L0,9 Z M5.6,6 L5.6,9 L25.6,9 L25.6,6 L5.6,6 L5.6,6 Z" id="Shape-Copy-6"></path>
                        </g>
                    </g>
                </g>
            </g>
        </g>
    </g>
</svg>