<?xml version="1.0" encoding="UTF-8" standalone="no"?>
<svg width="15px" height="16px" viewBox="0 0 15 16" version="1.1" xmlns="http://www.w3.org/2000/svg" xmlns:xlink="http://www.w3.org/1999/xlink">
    <!-- Generator: Sketch 40.1 (33804) - http://www.bohemiancoding.com/sketch -->
    <title>owl-icon</title>
    <desc>Created with Sketch.</desc>
    <defs></defs>
    <g id="Page-1" stroke="none" stroke-width="1" fill="none" fill-rule="evenodd">
        <g id="001-prueba-maquetacion" transform="translate(-406.000000, -657.000000)" fill="#606060">
            <g id="resultados" transform="translate(194.000000, 314.000000)">
                <g id="modelocarddarwin1">
                    <g id="Group-4" transform="translate(0.000000, 192.000000)">
                        <g id="nivel" transform="translate(0.000000, 150.000000)">
                            <path d="M224.890757,1.37784539 L225.121395,1 L224.659106,1.00872685 C223.481043,1.03122576 222.416202,1.79073454 221.701729,2.46229301 C220.952842,2.34625316 220.162453,2.3159819 219.351676,2.28748327 C218.631709,2.26212086 217.989536,2.27998364 217.001479,2.46229301 C216.287006,1.79073454 215.222165,1.03122576 214.044246,1.00872685 L213.591935,1.00204536 L213.811584,1.3762091 C213.833274,1.41316186 214.333159,2.2985282 213.409882,3.61710088 C212.441201,5.00085223 211.512719,8.44973112 212.289081,11.3261831 C212.76236,13.0793257 213.776446,14.3582185 215.303431,15.1278177 C215.604779,15.3128542 216.034533,15.4759372 216.555096,15.6037038 C216.664559,16.3647125 217.214909,16.820145 217.239925,16.8405986 L217.435715,16.9995909 L217.606489,16.8167361 C217.902631,16.4995696 218.06979,16.1459958 218.163636,15.8567825 C218.550443,15.89019 218.948963,15.90778 219.352399,15.9091436 C219.661845,15.9084618 219.975051,15.8974169 220.286087,15.8762815 C220.465826,16.47298 220.889362,16.8240994 220.909317,16.8403259 L221.105106,17 L221.276169,16.8167361 C221.644612,16.4221188 221.812928,15.9702316 221.889277,15.6630191 C222.529136,15.5278893 223.048831,15.3439436 223.400067,15.1276813 C224.927341,14.3580821 225.941282,13.0789166 226.414416,11.3256377 C227.190489,8.44891298 226.262007,5.00044316 225.293036,3.61710088 C224.370194,2.2985282 224.870079,1.41316186 224.890757,1.37784539 Z" id="owl-icon"></path>
                        </g>
                    </g>
                </g>
            </g>
        </g>
    </g>
</svg>