<?xml version="1.0" encoding="UTF-8" standalone="no"?>
<svg width="16px" height="9px" viewBox="0 0 16 9" version="1.1" xmlns="http://www.w3.org/2000/svg" xmlns:xlink="http://www.w3.org/1999/xlink">
    <!-- Generator: Sketch 40.1 (33804) - http://www.bohemiancoding.com/sketch -->
    <title>performance-icon</title>
    <desc>Created with Sketch.</desc>
    <defs></defs>
    <g id="Page-1" stroke="none" stroke-width="1" fill="none" fill-rule="evenodd">
        <g id="002-prueba-maquetacion-desplegables" transform="translate(-14.000000, -654.000000)" fill="#FFFFFF">
            <g id="modulo-trader" transform="translate(-1.000000, 548.000000)">
                <g id="Principal" transform="translate(0.000000, 35.000000)">
                    <g transform="translate(1.000000, 60.000000)" id="Darwinia">
                        <g>
                            <path d="M28.4661023,11 L16.2929317,11 C15.5390796,11 14.9197861,11.6024123 14.9197861,12.3599913 L14.9197861,17.8563511 C14.9197861,18.2771922 15.1918213,18.734217 15.4135997,18.9278495 C15.5896607,19.0810605 15.962858,19.2359013 16.2929317,19.2359013 L28.4661023,19.2359013 C29.2202785,19.2359013 29.8395721,18.6139302 29.8395721,17.8563511 L29.8395721,12.3599913 C29.8398963,11.6024123 29.2202785,11 28.4661023,11 L28.4661023,11 Z M28.8175756,16.3125067 C28.0170334,16.6013256 27.298199,17.2669781 26.9665041,18.2084102 L17.78183,18.2084102 C17.4400837,17.3012061 16.7082798,16.6342497 15.9417825,16.3327175 L15.9417825,13.8934043 C16.7254644,13.6026296 17.4378141,12.9519722 17.776318,12.0102141 L26.9749343,12.0102141 C27.3053322,13.0031511 28.0004973,13.6332717 28.8185484,13.9110073 L28.8185484,16.3125067 L28.8175756,16.3125067 L28.8175756,16.3125067 Z M22.3684929,12.6794523 C21.0319861,12.6794523 19.9487088,13.7685537 19.9487088,15.112572 C19.9487088,16.4562642 21.0319861,17.5456916 22.3684929,17.5456916 C23.7053239,17.5456916 24.7886012,16.4562642 24.7886012,15.112572 C24.7889254,13.7685537 23.7053239,12.6794523 22.3684929,12.6794523 L22.3684929,12.6794523 Z" id="performance-icon"></path>
                        </g>
                    </g>
                </g>
            </g>
        </g>
    </g>
</svg>