<?xml version="1.0" encoding="UTF-8" standalone="no"?>
<svg width="15px" height="14px" viewBox="0 0 15 14" version="1.1" xmlns="http://www.w3.org/2000/svg" xmlns:xlink="http://www.w3.org/1999/xlink">
    <!-- Generator: Sketch 40.1 (33804) - http://www.bohemiancoding.com/sketch -->
    <title>rebates-icon</title>
    <desc>Created with Sketch.</desc>
    <defs></defs>
    <g id="Page-1" stroke="none" stroke-width="1" fill="none" fill-rule="evenodd">
        <g id="002-prueba-maquetacion-desplegables" transform="translate(-15.000000, -681.000000)" fill="#FFFFFF">
            <g id="modulo-trader" transform="translate(-1.000000, 548.000000)">
                <g id="Principal" transform="translate(0.000000, 35.000000)">
                    <g transform="translate(1.000000, 90.000000)" id="Darwinia">
                        <g>
                            <path d="M19.9833703,12.2713449 C22.8355538,12.2713449 24.9667405,11.1438291 24.9667405,10.1356487 C24.9667405,9.12756329 22.8355063,8 19.9833703,8 C17.1312342,8 15.0000475,9.12756329 15.0000475,10.1356487 C15.0000475,11.1438291 17.1311867,12.2713449 19.9833703,12.2713449 Z M19.9833703,20.8144146 C20.3996677,20.8144146 20.8003481,20.7902057 21.1814715,20.7461076 C20.8602057,20.3332278 20.5945253,19.8750633 20.3954905,19.3830063 C20.2587342,19.3876108 20.1215032,19.3907911 19.9833228,19.3907911 C18.3535918,19.3907911 16.8102057,19.0678639 15.6375949,18.4815348 C15.4067089,18.3660918 15.1942405,18.242057 15.0000475,18.1107595 L15.0000475,18.6787658 C15.0000475,19.6868513 17.1311867,20.8144146 19.9833703,20.8144146 Z M19.9833703,15.1189715 C20.1246361,15.1189715 20.2640032,15.1161234 20.4016139,15.110712 C20.6226266,14.568481 20.9246677,14.0676424 21.2929272,13.623481 C20.8665665,13.6704747 20.4283861,13.6953956 19.9833703,13.6953956 C18.3536392,13.6953956 16.8103006,13.3724684 15.6376424,12.7861392 C15.4067089,12.6706487 15.194193,12.5466614 15,12.4153639 L15,12.9833703 C15.0000475,13.9915032 17.1311867,15.1189715 19.9833703,15.1189715 Z M22.1194462,14.8943038 C21.8113766,15.3574525 21.5912658,15.8838291 21.4829905,16.449462 C21.4330063,16.7102057 21.4066139,16.9792089 21.4066139,17.254288 C21.4066139,17.4611076 21.4217089,17.664462 21.4502373,17.8634968 C21.5203481,18.3524684 21.6735285,18.8148101 21.8950158,19.2359968 C22.1274209,19.6779747 22.4348734,20.0745728 22.8005222,20.4085127 C23.5603956,21.1025475 24.5709968,21.5264399 25.6787658,21.5264399 C28.0344304,21.5264399 29.9509177,19.6099525 29.9509177,17.254288 C29.9509177,14.8985759 28.0344304,12.9821361 25.6787658,12.9821361 C25.4353006,12.9821361 25.1965823,13.0029272 24.9640823,13.042231 C23.7798418,13.2425 22.7598418,13.931693 22.1194462,14.8943038 Z M19.9833703,17.9667405 C19.9979905,17.9667405 20.0123734,17.9665032 20.0269462,17.9664557 C19.9977532,17.7331013 19.9825158,17.4954272 19.9825158,17.254288 C19.9825158,17.0132437 19.9977057,16.775712 20.0269462,16.5425475 C20.0123734,16.5425475 19.997943,16.5430696 19.9833703,16.5430696 C18.3536392,16.5430696 16.8103006,16.2201424 15.6376424,15.6338133 C15.4067089,15.5183703 15.194193,15.3943354 15,15.2630854 L15,15.8310443 C15.0000475,16.8391772 17.1311867,17.9667405 19.9833703,17.9667405 Z" id="rebates-icon"></path>
                        </g>
                    </g>
                </g>
            </g>
        </g>
    </g>
</svg>