<?xml version="1.0" encoding="UTF-8" standalone="no"?>
<svg width="15px" height="12px" viewBox="0 0 15 12" version="1.1" xmlns="http://www.w3.org/2000/svg" xmlns:xlink="http://www.w3.org/1999/xlink">
    <!-- Generator: Sketch 40.1 (33804) - http://www.bohemiancoding.com/sketch -->
    <title>widgets-icon</title>
    <desc>Created with Sketch.</desc>
    <defs></defs>
    <g id="Page-1" stroke="none" stroke-width="1" fill="none" fill-rule="evenodd">
        <g id="001-prueba-maquetacion-desktop-desplegables" transform="translate(-15.000000, -712.000000)" fill="#FFFFFF">
            <g id="modulo-trader" transform="translate(-1.000000, 548.000000)">
                <g id="Principal" transform="translate(0.000000, 35.000000)">
                    <g transform="translate(1.000000, 90.000000)" id="Darwinia-Copy">
                        <g transform="translate(0.000000, 30.000000)">
                            <path d="M29.4058648,13.5871105 C29.0097454,12.6606818 28.4767975,11.8628139 27.8071677,11.1930375 C27.1375673,10.5233784 26.3395234,9.99048915 25.4130654,9.59431108 C24.4865781,9.19813301 23.5157908,9 22.5000293,9 C21.4843264,9 20.5133633,9.19816233 19.5870519,9.59431108 C18.6607405,9.99063574 17.8627552,10.5233784 17.1931254,11.1930375 C16.5233491,11.8628139 15.9905478,12.6606818 15.5942818,13.5871105 C15.1981037,14.5135392 15,15.4844144 15,16.500088 C15,17.9620445 15.3933928,19.3098943 16.1802371,20.5431683 C16.2861934,20.7050052 16.4368894,20.7858651 16.6322372,20.7858651 L28.3677921,20.7858651 C28.5630519,20.7858651 28.7137479,20.7049759 28.8197042,20.5431683 C29.6066072,19.3043532 30,17.9565913 30,16.500088 C30,15.4844144 29.8019843,14.5135392 29.4058648,13.5871105 L29.4058648,13.5871105 Z M21.7424154,10.3854065 C21.9518066,10.1761032 22.2042371,10.0714369 22.5,10.0714369 C22.7957922,10.0714369 23.0482227,10.1761326 23.257526,10.3854065 C23.4668293,10.5945925 23.5715542,10.8471403 23.5715542,11.1429032 C23.5715542,11.4386661 23.4668293,11.6911259 23.257526,11.9003999 C23.0482227,12.1096739 22.7957922,12.2143695 22.5,12.2143695 C22.2042371,12.2143695 21.9516893,12.1096739 21.7424154,11.9003999 C21.5332294,11.6910966 21.4285044,11.4386661 21.4285044,11.1429032 C21.4285044,10.8471403 21.5331121,10.5946219 21.7424154,10.3854065 L21.7424154,10.3854065 Z M17.9004292,17.257614 C17.6911553,17.4668 17.4386075,17.5717594 17.1428446,17.5717594 C16.8471696,17.5717594 16.5946219,17.4668 16.3853479,17.257614 C16.1760446,17.0485159 16.0714956,16.7958802 16.0714956,16.500088 C16.0714956,16.204325 16.1760446,15.9518945 16.3853479,15.7425913 C16.5946512,15.533288 16.8471696,15.428651 17.1428446,15.428651 C17.4386075,15.428651 17.6912725,15.533288 17.9004292,15.7425913 C18.1096152,15.9518945 18.2143402,16.204325 18.2143402,16.500088 C18.2143402,16.7958802 18.1096152,17.0483107 17.9004292,17.257614 L17.9004292,17.257614 Z M19.5076286,13.5075993 C19.2982374,13.7168439 19.0458069,13.8215689 18.7500147,13.8215689 C18.4542224,13.8215689 18.201704,13.7167267 17.9924007,13.5075993 C17.7832147,13.2984133 17.6785191,13.0458655 17.6785191,12.7501026 C17.6785191,12.4543397 17.7830974,12.2018799 17.9924007,11.9926059 C18.2017919,11.7833026 18.4542224,11.6786363 18.7500147,11.6786363 C19.0457776,11.6786363 19.2983253,11.783332 19.5076286,11.9926059 C19.7168146,12.2019092 19.8215102,12.4543397 19.8215102,12.7501026 C19.8215102,13.0457776 19.7167853,13.298296 19.5076286,13.5075993 L19.5076286,13.5075993 Z M24.2493931,13.5787841 L23.4038829,16.7762956 C23.6831103,16.9659263 23.8839992,17.219764 24.0067843,17.5379848 C24.1293933,17.8560589 24.1462514,18.1825181 24.0569478,18.517333 C23.9453624,18.9470512 23.6969779,19.2735397 23.3118821,19.4966519 C22.9267864,19.7198813 22.519526,19.7757913 22.0897198,19.6641179 C21.6601189,19.5525325 21.3335718,19.3042359 21.1104303,18.9191402 C20.8872888,18.5339564 20.8314961,18.1267547 20.9430815,17.6969192 C21.0323263,17.3622216 21.2081188,17.087392 21.4704296,16.8726941 C21.7326524,16.6577031 22.0311712,16.536472 22.3659861,16.5085023 L23.2114377,13.3109322 C23.2504603,13.1658653 23.334164,13.0555406 23.4624609,12.9801926 C23.5909043,12.9049911 23.724713,12.8868431 23.8642974,12.9258658 C24.0039697,12.9649764 24.111304,13.0472142 24.1865347,13.1727258 C24.2620586,13.2984133 24.2829039,13.4337172 24.2493931,13.5787841 L24.2493931,13.5787841 Z M25.4924887,13.5075993 C25.2831854,13.2984133 25.1784604,13.0458655 25.1784604,12.7501026 C25.1784604,12.4543397 25.2831854,12.2018799 25.4924887,11.9926059 C25.7017919,11.783332 25.9542224,11.6786363 26.2500147,11.6786363 C26.5457776,11.6786363 26.7982081,11.783332 27.0075113,11.9926059 C27.2168146,12.2018799 27.3215689,12.4543397 27.3215689,12.7501026 C27.3215689,13.0457776 27.2168146,13.2983253 27.0075113,13.5075993 C26.7982081,13.7168439 26.5457776,13.8215689 26.2500147,13.8215689 C25.9542224,13.8215689 25.7017919,13.7168439 25.4924887,13.5075993 L25.4924887,13.5075993 Z M28.6146521,17.257614 C28.4053488,17.4668 28.1529183,17.5717594 27.8571554,17.5717594 C27.5613632,17.5717594 27.3089327,17.4668 27.0996294,17.257614 C26.8903261,17.0485159 26.7856892,16.7958802 26.7856892,16.500088 C26.7856892,16.204325 26.8903261,15.9518945 27.0996294,15.7425913 C27.3089327,15.533288 27.5613632,15.428651 27.8571554,15.428651 C28.1529183,15.428651 28.4053488,15.533288 28.6146521,15.7425913 C28.8239554,15.9518945 28.9284751,16.204325 28.9284751,16.500088 C28.9284751,16.7958802 28.8239261,17.0483107 28.6146521,17.257614 L28.6146521,17.257614 Z" id="widgets-icon"></path>
                        </g>
                    </g>
                </g>
            </g>
        </g>
    </g>
</svg>