<?xml version="1.0" encoding="UTF-8" standalone="no"?>
<svg width="115px" height="25px" viewBox="0 0 115 25" version="1.1" xmlns="http://www.w3.org/2000/svg" xmlns:xlink="http://www.w3.org/1999/xlink">
    <!-- Generator: Sketch 40.1 (33804) - http://www.bohemiancoding.com/sketch -->
    <title>logo darwinex</title>
    <desc>Created with Sketch.</desc>
    <defs></defs>
    <g id="Page-1" stroke="none" stroke-width="1" fill="none" fill-rule="evenodd">
        <g id="001-prueba-maquetacion-desktop-desplegables" transform="translate(-15.000000, -13.000000)">
            <g id="header">
                <g id="logo-darwinex" transform="translate(15.000000, 13.000000)">
                    <g id="ico">
                        <path d="M18.9876603,4.1702381 C17.4591384,1.79107143 18.3805001,0.146230159 18.3805001,0.146230159 C16.6940084,0.181349206 15.1477197,1.44384921 14.1332756,2.51706349 C13.0267145,2.31765873 11.8073731,2.20634921 10.5246893,2.20634921 C9.24219856,2.20634921 8.02247091,2.31765873 6.91571676,2.51706349 C5.90107948,1.44384921 4.35498391,0.181349206 2.6684922,0.146230159 C2.6684922,0.146230159 3.58985392,1.79107143 2.06075266,4.1702381 C0.00444169349,7.37043651 -2.15789057,18.3878968 4.73542461,22.1551587 C5.19967814,22.4696429 5.8956722,22.7410714 6.74963605,22.9462302 C6.79637039,24.1968254 7.65419658,24.955754 7.65419658,24.955754 C8.15572171,24.3704365 8.37954444,23.6958333 8.47919287,23.2428571 C9.12207972,23.3152778 9.80841793,23.3563492 10.5246893,23.3589286 C11.1082892,23.3575397 11.6721911,23.3287698 12.2098292,23.2795635 C12.3753305,24.3297619 13.0804011,24.955754 13.0804011,24.955754 C13.670567,24.2672619 13.8772023,23.4559524 13.9486556,23.0253968 C14.9636791,22.8132937 15.7877098,22.5123016 16.3135677,22.1551587 C23.207076,18.3878968 21.0449369,7.37043651 18.9876603,4.1702381" id="Fill-1" fill="#6AA9CD"></path>
                        <path d="M19.6662738,11.6121032 C19.6662738,11.6121032 15.395489,13.1771825 15.5262293,19.102381 C15.5262293,19.102381 16.7712553,18.9005952 17.7540282,16.972619 C17.7540282,16.972619 17.1908987,19.9174603 15.5248774,21.0140873 C15.5248774,21.0140873 19.8389205,19.9053571 19.6662738,11.6121032" id="Fill-2" fill="#0078AD"></path>
                        <path d="M1.38271849,11.6121032 C1.38271849,11.6121032 5.65331023,13.1771825 5.52237683,19.102381 C5.52237683,19.102381 4.27754395,18.9005952 3.29515722,16.972619 C3.29515722,16.972619 3.85847982,19.9174603 5.52353553,21.0140873 C5.52353553,21.0140873 1.21045803,19.9053571 1.38271849,11.6121032" id="Fill-3" fill="#0078AD"></path>
                        <path d="M6.28866551,15.5876984 C6.25139391,16.4982143 6.88423867,17.0581349 6.88423867,17.0581349 C7.44118841,16.4075397 7.47903937,15.5876984 7.47903937,15.5876984 L6.85449864,16.590873 L6.28866551,15.5876984" id="Fill-4" fill="#0078AD"></path>
                        <path d="M8.15726665,15.5876984 C8.1194157,16.4982143 8.75226046,17.0581349 8.75226046,17.0581349 C9.3092102,16.4075397 9.34686804,15.5876984 9.34686804,15.5876984 L8.72232731,16.590873 L8.15726665,15.5876984" id="Fill-5" fill="#0078AD"></path>
                        <path d="M10.0254816,15.5876984 C9.98782372,16.4982143 10.6206685,17.0581349 10.6206685,17.0581349 C11.1774251,16.4075397 11.2158554,15.5876984 11.2158554,15.5876984 L10.5905422,16.590873 L10.0254816,15.5876984" id="Fill-6" fill="#0078AD"></path>
                        <path d="M11.8940827,15.5876984 C11.8556524,16.4982143 12.4892696,17.0581349 12.4892696,17.0581349 C13.04564,16.4075397 13.0840703,15.5876984 13.0840703,15.5876984 L12.4589502,16.590873 L11.8940827,15.5876984" id="Fill-7" fill="#0078AD"></path>
                        <path d="M7.23416687,17.8007937 C7.19592969,18.7109127 7.82896757,19.2706349 7.82896757,19.2706349 C8.38611042,18.6206349 8.42434761,17.8007937 8.42434761,17.8007937 L7.79903441,18.8045635 L7.23416687,17.8007937" id="Fill-8" fill="#0078AD"></path>
                        <path d="M9.12768012,17.8007937 C9.08963605,18.7109127 9.72209458,19.2706349 9.72209458,19.2706349 C10.2794306,18.6206349 10.3172815,17.8007937 10.3172815,17.8007937 L9.69254766,18.8045635 L9.12768012,17.8007937" id="Fill-9" fill="#0078AD"></path>
                        <path d="M11.0333597,17.8007937 C10.9957019,18.7109127 11.6281604,19.2706349 11.6281604,19.2706349 C12.1856895,18.6206349 12.2235405,17.8007937 12.2235405,17.8007937 L11.5982273,18.8045635 L11.0333597,17.8007937" id="Fill-10" fill="#0078AD"></path>
                        <path d="M12.8307007,17.8007937 C12.7930428,18.7109127 13.4260807,19.2706349 13.4260807,19.2706349 C13.9824511,18.6206349 14.0206883,17.8007937 14.0206883,17.8007937 L13.3959544,18.8045635 L12.8307007,17.8007937" id="Fill-11" fill="#0078AD"></path>
                        <path d="M13.7622976,15.5876984 C13.7236742,16.4982143 14.3572914,17.0581349 14.3572914,17.0581349 C14.9136618,16.4075397 14.9522852,15.5876984 14.9522852,15.5876984 L14.326972,16.590873 L13.7622976,15.5876984" id="Fill-12" fill="#0078AD"></path>
                        <path d="M6.28866551,19.9662698 C6.25139391,20.8753968 6.88423867,21.4349206 6.88423867,21.4349206 C7.44118841,20.785119 7.47903937,19.9662698 7.47903937,19.9662698 L6.85449864,20.9680556 L6.28866551,19.9662698" id="Fill-13" fill="#0078AD"></path>
                        <path d="M8.15726665,19.9662698 C8.1194157,20.8753968 8.75226046,21.4349206 8.75226046,21.4349206 C9.3092102,20.785119 9.34686804,19.9662698 9.34686804,19.9662698 L8.72232731,20.9680556 L8.15726665,19.9662698" id="Fill-14" fill="#0078AD"></path>
                        <path d="M10.0254816,19.9662698 C9.98782372,20.8753968 10.6206685,21.4349206 10.6206685,21.4349206 C11.1774251,20.785119 11.2158554,19.9662698 11.2158554,19.9662698 L10.5905422,20.9680556 L10.0254816,19.9662698" id="Fill-15" fill="#0078AD"></path>
                        <path d="M11.8940827,19.9662698 C11.8556524,20.8753968 12.4892696,21.4349206 12.4892696,21.4349206 C13.04564,20.785119 13.0840703,19.9662698 13.0840703,19.9662698 L12.4589502,20.9680556 L11.8940827,19.9662698" id="Fill-16" fill="#0078AD"></path>
                        <path d="M13.7622976,19.9662698 C13.7236742,20.8753968 14.3572914,21.4349206 14.3572914,21.4349206 C14.9136618,20.785119 14.9522852,19.9662698 14.9522852,19.9662698 L14.326972,20.9680556 L13.7622976,19.9662698" id="Fill-17" fill="#0078AD"></path>
                        <path d="M18.7443328,8.4047619 C18.7443328,10.4996032 17.0914434,12.197619 15.0523199,12.197619 C13.0124239,12.197619 11.3595345,10.4996032 11.3595345,8.4047619 C11.3595345,6.30892857 13.0124239,4.61011905 15.0523199,4.61011905 C17.0914434,4.61011905 18.7443328,6.30892857 18.7443328,8.4047619" id="Fill-18" fill="#FFFFFF"></path>
                        <path d="M2.37978212,8.4047619 C2.37978212,10.4996032 4.0332508,12.197619 6.07218123,12.197619 C8.11130478,12.197619 9.76458034,10.4996032 9.76458034,8.4047619 C9.76458034,6.30892857 8.11130478,4.61011905 6.07218123,4.61011905 C4.0332508,4.61011905 2.37978212,6.30892857 2.37978212,8.4047619" id="Fill-19" fill="#FFFFFF"></path>
                        <path d="M7.67872246,8.35555556 C7.67872246,9.29345238 6.9398564,10.052381 6.028923,10.052381 C5.11760337,10.052381 4.37873731,9.29345238 4.37873731,8.35555556 C4.37873731,7.41944444 5.11760337,6.66011905 6.028923,6.66011905 C6.9398564,6.66011905 7.67872246,7.41944444 7.67872246,8.35555556" id="Fill-20" fill="#1A1918"></path>
                        <path d="M6.67934142,8.35654762 C6.67934142,8.72579365 6.3879277,9.02559524 6.028923,9.02559524 C5.67011141,9.02559524 5.37773211,8.72579365 5.37773211,8.35654762 C5.37773211,7.98849206 5.67011141,7.68670635 6.028923,7.68670635 C6.3879277,7.68670635 6.67934142,7.98849206 6.67934142,8.35654762" id="Fill-21" fill="#FFFFFF"></path>
                        <path d="M16.6335628,8.35555556 C16.6335628,9.29345238 15.8950829,10.052381 14.9841495,10.052381 C14.0722506,10.052381 13.3337707,9.29345238 13.3337707,8.35555556 C13.3337707,7.41944444 14.0722506,6.66011905 14.9841495,6.66011905 C15.8950829,6.66011905 16.6335628,7.41944444 16.6335628,8.35555556" id="Fill-22" fill="#1A1918"></path>
                        <path d="M15.6341817,8.35654762 C15.6341817,8.72579365 15.3431542,9.02559524 14.9837633,9.02559524 C14.6251448,9.02559524 14.3329587,8.72579365 14.3329587,8.35654762 C14.3329587,7.98849206 14.6251448,7.68670635 14.9837633,7.68670635 C15.3431542,7.68670635 15.6341817,7.98849206 15.6341817,8.35654762" id="Fill-23" fill="#FFFFFF"></path>
                        <path d="M18.9040406,7.03452381 C18.774459,6.44662698 17.9264818,4.88829365 17.9264818,4.88829365 C16.9927606,3.40575397 16.9249765,2.0702381 16.9249765,2.0702381 C16.0001386,2.6359127 15.2618519,3.3234127 14.7257589,3.95238095 C14.6123991,4.08531746 14.5052191,4.17281746 14.4256549,4.22678571 C11.0244764,3.26170635 7.63816786,3.85972222 6.5447388,4.10218254 C6.49819757,4.05972222 6.44933895,4.01210317 6.39854915,3.95238095 C5.86284229,3.3234127 5.12397623,2.6359127 4.19971775,2.0702381 C4.19971775,2.0702381 4.13174053,3.40575397 3.19801931,4.88829365 C3.19801931,4.88829365 2.35042832,6.44503968 2.22046051,7.03373016 C2.07523644,7.46369048 1.99219609,7.92400794 1.99219609,8.4047619 C1.99219609,10.7156746 3.82256004,12.5958333 6.07218123,12.5958333 C7.45856895,12.5958333 8.68428324,11.8805556 9.42160436,10.7912698 C9.67516712,12.0789683 10.562154,12.8293651 10.562154,12.8293651 C10.562154,12.8293651 11.4497202,12.0789683 11.7034761,10.7912698 L11.7042486,10.793254 C12.4425353,11.8815476 13.6665115,12.5958333 15.0523199,12.5958333 C17.3021342,12.5958333 19.1321119,10.7156746 19.1321119,8.4047619 C19.1321119,7.92440476 19.0494578,7.46468254 18.9040406,7.03452381 L18.9040406,7.03452381 Z M6.07218123,11.7992063 C4.25012132,11.7992063 2.76775439,10.2763889 2.76775439,8.4047619 C2.76775439,7.63531746 3.02054469,6.92797619 3.44096063,6.35813492 L9.04212924,9.88313492 C8.50584303,11.0152778 7.37745977,11.7992063 6.07218123,11.7992063 L6.07218123,11.7992063 Z M15.0523199,11.7992063 C13.7240604,11.7992063 12.5800347,10.9884921 12.0549492,9.82539683 L17.6460758,6.30694444 C18.0896658,6.88492063 18.3561674,7.61269841 18.3561674,8.4047619 C18.3561674,10.2763889 16.8741867,11.7992063 15.0523199,11.7992063 L15.0523199,11.7992063 Z" id="Fill-24" fill="#0078AD"></path>
                    </g>
                    <g id="Texto" transform="translate(25.000000, 7.857143)" fill="#FFFFFF">
                        <path d="M10.5961593,0.860641399 C9.67709637,0.860641399 8.95695882,1.56618076 8.95695882,2.46666667 L8.95695882,6.06822157 C8.0345243,5.2303207 6.9437073,4.82040816 5.6484117,4.82040816 C2.93862394,4.82040816 0.195516688,6.85733722 0.195516688,10.750243 L0.195516688,10.7904762 C0.195516688,14.6421769 3.00506462,16.7201166 5.6484117,16.7201166 C6.96810194,16.7201166 8.07260373,16.2738581 8.99940152,15.3613217 C9.16718901,16.0783285 9.81751427,16.5988338 10.6167856,16.5988338 C11.5356502,16.5988338 12.2555894,15.8932945 12.2555894,14.9926142 L12.2555894,2.46666667 C12.2555894,1.56618076 11.5267253,0.860641399 10.5961593,0.860641399 L10.5961593,0.860641399 Z M8.99840987,10.750243 L8.99840987,10.7904762 C8.99840987,12.6810496 7.59918916,13.81069 6.24637775,13.81069 C4.6888894,13.81069 3.51477365,12.5123421 3.51477365,10.7904762 L3.51477365,10.750243 C3.51477365,8.97162293 4.6379185,7.72964043 6.24637775,7.72964043 C7.5805461,7.72964043 8.99840987,8.78833819 8.99840987,10.750243 L8.99840987,10.750243 Z" id="Fill-25"></path>
                        <path d="M18.6987479,4.90126336 C17.3691412,4.90126336 16.2783242,5.09620991 15.0480809,5.55432459 C14.4967225,5.76443149 14.111565,6.31428571 14.111565,6.89135083 C14.111565,7.66550049 14.7636752,8.29562682 15.5651282,8.29562682 C15.7229992,8.29562682 15.8826551,8.27133139 16.0671024,8.21963071 L16.1041901,8.20758017 C16.7957681,7.94033042 17.536532,7.81049563 18.3687262,7.81049563 C19.8056297,7.81049563 20.5565085,8.3552964 20.6560703,9.47327502 C20.0059434,9.30398445 19.2038954,9.1638484 18.1420346,9.1638484 C15.0762439,9.1638484 13.2458529,10.5951409 13.2458529,12.9926142 L13.2458529,13.0328474 C13.2458529,15.2038873 14.9965151,16.7201166 17.5028159,16.7201166 C18.7554704,16.7201166 19.855609,16.3482993 20.7304442,15.6365403 C20.9438477,16.2017493 21.5422104,16.5988338 22.2651245,16.5988338 C23.172486,16.5988338 23.8835003,15.9111759 23.8835003,15.0332362 L23.8835003,9.78036929 C23.8835003,8.22934888 23.4473718,7.02643343 22.5943529,6.21243926 C21.7421274,5.35471331 20.3950675,4.90126336 18.6987479,4.90126336 L18.6987479,4.90126336 Z M20.7088262,11.8157434 L20.7088262,12.2653061 C20.7088262,13.3601555 19.655097,14.1543246 18.2039137,14.1543246 C17.4097989,14.1543246 16.4824061,13.8344023 16.4824061,12.9319728 L16.4824061,12.8917396 C16.4824061,11.64276 17.9891219,11.5080661 18.6366705,11.5080661 C19.5243973,11.5080661 20.2241068,11.6598639 20.7088262,11.8157434 L20.7088262,11.8157434 Z" id="Fill-26"></path>
                        <path d="M30.8573909,4.90126336 C30.0097269,4.90126336 29.1565097,5.39844509 28.4881364,6.23479106 C28.3433552,5.47755102 27.6791468,4.9212828 26.8578608,4.9212828 C25.9389962,4.9212828 25.219057,5.63576288 25.219057,6.54791059 L25.219057,14.9926142 C25.219057,15.8932945 25.9389962,16.5988338 26.8578608,16.5988338 C27.7731554,16.5988338 28.5176876,15.8783285 28.5176876,14.9926142 L28.5176876,11.8410107 C28.5176876,9.70009718 29.4609468,8.35996113 31.1780911,8.0664723 C31.9666526,7.92361516 32.496393,7.29698737 32.496393,6.50728863 C32.496393,5.54674441 31.8377379,4.90126336 30.8573909,4.90126336" id="Fill-27"></path>
                        <path d="M48.4016948,4.9212828 C47.6410979,4.9212828 47.0427352,5.38017493 46.8025571,6.14441205 L45.0598282,11.4684159 L43.3006379,6.16462585 C43.049155,5.39766764 42.4127128,4.9212828 41.6400177,4.9212828 L41.4954349,4.9212828 C40.7225415,4.9212828 40.0862977,5.39766764 39.8348148,6.16462585 L38.0958542,11.4588921 L36.3737516,6.16462585 C36.1186988,5.38620019 35.5207327,4.9212828 34.7748122,4.9212828 C33.7619391,4.9212828 33.1566348,5.696793 33.1566348,6.44684159 C33.1566348,6.705345 33.2314053,7.01690962 33.3032009,7.204276 L36.2273838,15.3164237 C36.5141695,16.1827017 37.1565616,16.6798834 37.9907391,16.6798834 L38.0734428,16.6798834 C38.8860023,16.6798834 39.5303777,16.1840622 39.7949504,15.3591837 L41.5553307,10.1500486 L43.2974646,15.3533528 C43.5636239,16.1840622 44.2157342,16.6798834 45.0413835,16.6798834 L45.1238889,16.6798834 C45.9338701,16.6798834 46.5756672,16.1860058 46.8840709,15.3263362 L49.8550597,7.1170068 C49.8675545,7.08027211 49.9786196,6.74538387 49.9786196,6.44684159 C49.9786196,5.59125364 49.2860499,4.9212828 48.4016948,4.9212828" id="Fill-28"></path>
                        <path d="M52.6907873,4.9212828 C51.7719227,4.9212828 51.0519835,5.63576288 51.0519835,6.54791059 L51.0519835,14.9926142 C51.0519835,15.8932945 51.7719227,16.5988338 52.6907873,16.5988338 C53.6213533,16.5988338 54.3502174,15.8932945 54.3502174,14.9926142 L54.3502174,6.54791059 C54.3502174,5.63576288 53.6213533,4.9212828 52.6907873,4.9212828" id="Fill-29"></path>
                        <path d="M52.6907873,0.456559767 C51.6332898,0.456559767 50.8659496,1.12361516 50.8659496,2.0425656 L50.8659496,2.16365403 C50.8659496,3.09426628 51.6332898,3.76987366 52.6907873,3.76987366 C53.7478881,3.76987366 54.5152283,3.09426628 54.5152283,2.16365403 L54.5152283,2.0425656 C54.5152283,1.12361516 53.7478881,0.456559767 52.6907873,0.456559767" id="Fill-30"></path>
                        <path d="M62.0975964,4.82040816 C60.8855996,4.82040816 59.8727264,5.22876579 59.0260541,6.06394558 C58.8207821,5.39552964 58.1964382,4.9212828 57.4384195,4.9212828 C56.5195549,4.9212828 55.7994174,5.63576288 55.7994174,6.54791059 L55.7994174,14.9926142 C55.7994174,15.8932945 56.5195549,16.5988338 57.4384195,16.5988338 C58.3691839,16.5988338 59.098048,15.8932945 59.098048,14.9926142 L59.098048,10.0833819 C59.098048,8.69387755 59.8840312,7.83070943 61.1493789,7.83070943 C62.7423684,7.83070943 63.0771501,9.03362488 63.0771501,10.0431487 L63.0771501,14.9926142 C63.0771501,15.8932945 63.8058158,16.5988338 64.7363819,16.5988338 C65.6552465,16.5988338 66.3751857,15.8932945 66.3751857,14.9926142 L66.3751857,9.2952381 C66.3751857,6.5350826 64.7361836,4.82040816 62.0975964,4.82040816" id="Fill-31"></path>
                        <path d="M73.0860902,4.82040816 C69.8247457,4.82040816 67.3656475,7.37823129 67.3656475,10.7702624 L67.3656475,10.81069 C67.3656475,14.2466472 69.8842448,16.7405248 73.3542328,16.7405248 C75.0094981,16.7405248 76.3785726,16.244898 77.5556633,15.2108844 C77.8442339,14.9276968 78.0030966,14.5634597 78.0030966,14.1846453 C78.0030966,13.408552 77.3918424,12.8005831 76.6118091,12.8005831 C76.1853988,12.8005831 75.9341142,12.9471331 75.7169425,13.1127308 C75.0073164,13.6855199 74.2697258,13.952381 73.3956839,13.952381 C72.0690521,13.952381 71.1113148,13.2439261 70.75908,12.0332362 L77.0856203,12.0332362 C77.9699754,12.0332362 78.662545,11.3451895 78.662545,10.4672498 C78.662545,7.72964043 76.708396,4.82040816 73.0860902,4.82040816 L73.0860902,4.82040816 Z M73.0658605,7.60855199 C74.254851,7.60855199 75.0900202,8.35471331 75.3603445,9.62876579 L70.7267522,9.62876579 C71.0448741,8.38717201 71.9282375,7.60855199 73.0658605,7.60855199 L73.0658605,7.60855199 Z" id="Fill-32"></path>
                        <path d="M88.6629569,13.9304179 L85.8302044,10.647619 L88.5624035,7.4462585 C88.7813602,7.18833819 89.0052752,6.85811467 89.0052752,6.36618076 C89.0052752,5.54460641 88.3127055,4.90126336 87.4281521,4.90126336 C86.9164598,4.90126336 86.4489951,5.16307094 86.0394429,5.67910593 L83.8655438,8.40835763 L81.7241708,5.65733722 C81.3146186,5.14849368 80.8334692,4.90126336 80.2539479,4.90126336 C79.3666178,4.90126336 78.6976495,5.55704568 78.6976495,6.42662779 C78.6976495,6.93372206 78.9659905,7.32244898 79.2041853,7.60971817 L81.8530856,10.6909621 L78.9887985,14.0598639 C78.6817831,14.3881438 78.5326386,14.752964 78.5326386,15.1747328 C78.5326386,15.9963071 79.2162834,16.6392614 80.0891353,16.6392614 C80.5978527,16.6392614 81.0569875,16.3875607 81.4992642,15.8602527 L83.8203245,12.9282799 L86.1376164,15.8555879 C86.546772,16.3902818 87.0162199,16.6392614 87.6139877,16.6392614 C88.5013177,16.6392614 89.170286,15.9834791 89.170286,15.113897 C89.170286,14.6068027 88.9015484,14.2182702 88.6629569,13.9304179" id="Fill-33"></path>
                    </g>
                </g>
            </g>
        </g>
    </g>
</svg>